<?xml version="1.0" encoding="utf-8"?>
<!-- Generator: Adobe Illustrator 16.0.4, SVG Export Plug-In . SVG Version: 6.00 Build 0)  -->
<!DOCTYPE svg PUBLIC "-//W3C//DTD SVG 1.1//EN" "http://www.w3.org/Graphics/SVG/1.1/DTD/svg11.dtd">
<svg version="1.1" id="Layer_1" xmlns="http://www.w3.org/2000/svg" xmlns:xlink="http://www.w3.org/1999/xlink" x="0px" y="0px"
	 width="200.498px" height="34.5px" viewBox="7.25 2.964 200.498 34.5" enable-background="new 7.25 2.964 200.498 34.5"
	 xml:space="preserve">
<g id="Mastercard">
	<rect x="7.25" y="7.881" fill="#22215E" width="36.917" height="23.875"/>
	<g>
		<g>
			<g>
				<circle fill="#ED1C2E" cx="18.761" cy="19.84" r="10.35"/>
				<g>
					<path fill="#FCB131" d="M32.656,9.49c-2.675,0-5.112,1.015-6.948,2.679c-0.374,0.339-0.723,0.706-1.044,1.095h2.09
						c0.286,0.347,0.548,0.714,0.789,1.096h-3.67c-0.219,0.353-0.419,0.718-0.597,1.097h4.863c0.166,0.354,0.312,0.721,0.438,1.096
						H22.84c-0.121,0.357-0.22,0.723-0.302,1.097h6.339c0.153,0.707,0.234,1.438,0.234,2.19c0,1.15-0.188,2.256-0.534,3.289H22.84
						c0.125,0.375,0.271,0.742,0.437,1.097h4.863c-0.179,0.379-0.376,0.743-0.598,1.096h-3.669c0.24,0.384,0.504,0.748,0.791,1.097
						h2.09c-0.322,0.393-0.671,0.758-1.046,1.1c1.836,1.662,4.273,2.676,6.948,2.676c5.716,0,10.35-4.633,10.35-10.352
						C43.005,14.125,38.372,9.49,32.656,9.49z"/>
				</g>
			</g>
			<path fill="#FCB131" d="M41.625,25.609c0-0.186,0.15-0.334,0.335-0.334s0.334,0.148,0.334,0.334s-0.149,0.334-0.334,0.334
				S41.625,25.794,41.625,25.609z M41.96,25.865c0.142,0,0.255-0.115,0.255-0.256c0-0.143-0.113-0.254-0.255-0.254
				c-0.14,0-0.254,0.111-0.254,0.254C41.706,25.75,41.821,25.865,41.96,25.865z M41.916,25.755h-0.069v-0.293h0.125
				c0.024,0,0.053,0,0.075,0.015c0.022,0.019,0.037,0.045,0.037,0.071c0,0.035-0.02,0.066-0.052,0.078l0.056,0.129H42.01
				l-0.046-0.114h-0.049L41.916,25.755L41.916,25.755z M41.916,25.589h0.038c0.014,0,0.029,0,0.042-0.006
				c0.011-0.008,0.017-0.021,0.017-0.035c0-0.01-0.007-0.022-0.017-0.028c-0.012-0.008-0.031-0.006-0.044-0.006h-0.036V25.589z"/>
		</g>
		<g>
			<g>
				<path fill="#003473" d="M16.343,20.973c-0.119-0.013-0.17-0.017-0.251-0.017c-0.637,0-0.96,0.217-0.96,0.648
					c0,0.268,0.158,0.436,0.403,0.436C15.994,22.041,16.324,21.605,16.343,20.973z M17.161,22.876c-0.15,0-0.932,0-0.932,0
					l0.021-0.442c-0.284,0.351-0.662,0.519-1.178,0.519c-0.608,0-1.026-0.478-1.026-1.166c0-1.041,0.727-1.646,1.973-1.646
					c0.128,0,0.291,0.012,0.459,0.031c0.035-0.141,0.042-0.201,0.042-0.275c0-0.283-0.194-0.391-0.72-0.391
					c-0.549-0.004-1.003,0.132-1.189,0.193c0.013-0.072,0.157-0.959,0.157-0.959c0.559-0.166,0.928-0.228,1.343-0.228
					c0.966,0,1.478,0.433,1.476,1.253c0.002,0.219-0.034,0.488-0.09,0.846C17.398,21.227,17.188,22.552,17.161,22.876z"/>
				<polygon fill="#003473" points="13.577,22.876 12.453,22.876 13.096,18.839 11.66,22.876 10.895,22.876 10.799,18.863 
					10.123,22.876 9.071,22.876 9.949,17.626 11.565,17.626 11.663,20.564 12.648,17.626 14.445,17.626 				"/>
				<path fill="#003473" d="M34.044,20.973c-0.119-0.013-0.17-0.017-0.251-0.017c-0.637,0-0.959,0.217-0.959,0.648
					c0,0.268,0.157,0.436,0.402,0.436C33.695,22.041,34.025,21.605,34.044,20.973z M34.863,22.876c-0.151,0-0.933,0-0.933,0
					l0.021-0.442c-0.284,0.351-0.662,0.519-1.177,0.519c-0.61,0-1.027-0.478-1.027-1.166c0-1.041,0.728-1.646,1.973-1.646
					c0.128,0,0.291,0.012,0.458,0.031c0.035-0.141,0.044-0.201,0.044-0.275c0-0.283-0.195-0.391-0.72-0.391
					c-0.55-0.004-1.004,0.132-1.19,0.193c0.014-0.072,0.157-0.959,0.157-0.959c0.56-0.166,0.929-0.228,1.343-0.228
					c0.967,0,1.478,0.433,1.476,1.253c0.003,0.219-0.033,0.488-0.092,0.846C35.1,21.227,34.889,22.552,34.863,22.876z"/>
				<path fill="#003473" d="M22.154,22.811c-0.308,0.099-0.547,0.142-0.807,0.142c-0.574,0-0.889-0.33-0.889-0.938
					c-0.008-0.188,0.083-0.687,0.154-1.14c0.064-0.397,0.488-2.912,0.488-2.912h1.116l-0.131,0.645h0.675l-0.152,1.025h-0.677
					c-0.13,0.812-0.314,1.824-0.316,1.959c0,0.222,0.117,0.316,0.384,0.316c0.128,0,0.228-0.016,0.304-0.041L22.154,22.811z"/>
				<path fill="#003473" d="M25.579,22.775c-0.384,0.119-0.753,0.176-1.146,0.174c-1.251,0-1.902-0.654-1.902-1.904
					c0-1.459,0.829-2.535,1.954-2.535c0.922,0,1.51,0.603,1.51,1.546c0,0.313-0.041,0.618-0.139,1.051h-2.224
					c-0.075,0.619,0.321,0.877,0.971,0.877c0.399,0,0.761-0.084,1.161-0.271L25.579,22.775z M24.951,20.246
					c0.007-0.09,0.118-0.764-0.52-0.764c-0.356,0-0.61,0.271-0.713,0.764H24.951z"/>
				<path fill="#003473" d="M17.834,19.957c0,0.539,0.262,0.912,0.855,1.189c0.455,0.215,0.524,0.277,0.524,0.473
					c0,0.266-0.199,0.387-0.645,0.387c-0.335,0-0.646-0.053-1.007-0.17c0,0-0.146,0.941-0.154,0.988
					c0.256,0.055,0.483,0.105,1.17,0.125c1.186,0,1.732-0.451,1.732-1.426c0-0.588-0.229-0.934-0.791-1.189
					c-0.472-0.217-0.526-0.266-0.526-0.465c0-0.229,0.188-0.35,0.55-0.35c0.222,0,0.522,0.021,0.809,0.062l0.158-0.99
					c-0.29-0.047-0.73-0.084-0.987-0.084C18.264,18.511,17.831,19.167,17.834,19.957z"/>
				<path fill="#003473" d="M31.044,18.625c0.312,0,0.603,0.08,1.005,0.283l0.182-1.14c-0.164-0.065-0.743-0.444-1.234-0.444
					c-0.752,0-1.389,0.375-1.835,0.989c-0.652-0.216-0.921,0.22-1.25,0.655l-0.291,0.068c0.021-0.145,0.042-0.285,0.036-0.431
					h-1.033c-0.141,1.321-0.39,2.662-0.586,3.983l-0.051,0.287h1.124c0.188-1.221,0.29-2,0.354-2.528l0.423-0.231
					c0.062-0.236,0.262-0.316,0.657-0.308c-0.051,0.276-0.079,0.571-0.079,0.875c0,1.396,0.755,2.269,1.964,2.269
					c0.312,0,0.579-0.041,0.993-0.154L31.62,21.6c-0.373,0.185-0.678,0.271-0.955,0.271c-0.653,0-1.047-0.483-1.047-1.279
					C29.618,19.434,30.204,18.625,31.044,18.625z"/>
				<path fill="#003473" d="M40.556,17.626l-0.25,1.517C40,18.74,39.67,18.446,39.234,18.446c-0.566,0-1.082,0.431-1.42,1.062
					c-0.472-0.096-0.958-0.264-0.958-0.264v0.004c0.037-0.353,0.054-0.568,0.05-0.643h-1.033c-0.139,1.322-0.391,2.661-0.585,3.982
					l-0.051,0.287h1.123c0.152-0.985,0.27-1.805,0.354-2.453c0.383-0.348,0.576-0.649,0.965-0.629
					c-0.174,0.416-0.272,0.894-0.272,1.385c0,1.066,0.539,1.771,1.355,1.771c0.412,0,0.728-0.143,1.036-0.473l-0.053,0.396h1.062
					l0.856-5.25h-1.107V17.626z M39.151,21.889c-0.383,0-0.576-0.283-0.576-0.841c0-0.84,0.362-1.436,0.872-1.436
					c0.386,0,0.596,0.295,0.596,0.838C40.042,21.296,39.674,21.889,39.151,21.889z"/>
			</g>
			<g>
				<polygon fill="#FFFFFF" points="13.9,22.562 12.775,22.562 13.42,18.528 11.983,22.562 11.216,22.562 11.122,18.552 
					10.446,22.562 9.394,22.562 10.273,17.314 11.889,17.314 11.934,20.564 13.023,17.314 14.769,17.314 				"/>
				<path fill="#FFFFFF" d="M16.667,20.662c-0.118-0.014-0.17-0.018-0.252-0.018c-0.637,0-0.958,0.219-0.958,0.648
					c0,0.266,0.156,0.436,0.402,0.436C16.318,21.729,16.647,21.294,16.667,20.662z M17.484,22.562c-0.149,0-0.931,0-0.931,0
					l0.021-0.439c-0.284,0.349-0.663,0.517-1.178,0.517c-0.609,0-1.026-0.476-1.026-1.166c0-1.041,0.726-1.646,1.972-1.646
					c0.128,0,0.291,0.012,0.458,0.031c0.034-0.143,0.045-0.199,0.045-0.275c0-0.283-0.196-0.391-0.72-0.391
					c-0.551-0.006-1.004,0.133-1.191,0.191c0.013-0.07,0.156-0.961,0.156-0.961c0.56-0.164,0.929-0.225,1.345-0.225
					c0.965,0,1.476,0.434,1.476,1.25c0.001,0.221-0.035,0.491-0.092,0.848C17.722,20.916,17.513,22.242,17.484,22.562z"/>
				<path fill="#FFFFFF" d="M32.554,17.457l-0.184,1.139c-0.401-0.201-0.692-0.282-1.003-0.282c-0.84,0-1.429,0.81-1.429,1.966
					c0,0.797,0.396,1.279,1.05,1.279c0.276,0,0.581-0.086,0.954-0.271l-0.197,1.195c-0.414,0.113-0.683,0.154-0.993,0.154
					c-1.21,0-1.964-0.869-1.964-2.268c0-1.877,1.043-3.188,2.531-3.188C31.81,17.183,32.389,17.391,32.554,17.457z"/>
				<path fill="#FFFFFF" d="M34.368,20.662c-0.118-0.014-0.169-0.018-0.251-0.018c-0.637,0-0.959,0.219-0.959,0.648
					c0,0.266,0.157,0.436,0.403,0.436C34.019,21.729,34.348,21.294,34.368,20.662z M35.185,22.562c-0.148,0-0.931,0-0.931,0
					l0.021-0.439c-0.284,0.349-0.664,0.517-1.178,0.517c-0.609,0-1.026-0.476-1.026-1.166c0-1.041,0.726-1.646,1.973-1.646
					c0.127,0,0.29,0.012,0.457,0.031c0.034-0.143,0.044-0.199,0.044-0.275c0-0.283-0.195-0.391-0.72-0.391
					c-0.55-0.006-1.004,0.133-1.19,0.191c0.012-0.07,0.156-0.961,0.156-0.961c0.561-0.164,0.929-0.225,1.345-0.225
					c0.965,0,1.477,0.434,1.476,1.25c0.002,0.221-0.036,0.491-0.092,0.848C35.423,20.916,35.214,22.242,35.185,22.562z"/>
				<path fill="#FFFFFF" d="M22.477,22.5c-0.307,0.097-0.547,0.14-0.807,0.14c-0.574,0-0.888-0.33-0.888-0.938
					c-0.008-0.188,0.082-0.686,0.153-1.139c0.064-0.398,0.487-2.914,0.487-2.914h1.117l-0.131,0.646h0.574l-0.153,1.024h-0.575
					c-0.13,0.812-0.314,1.824-0.318,1.957c0,0.222,0.118,0.317,0.388,0.317c0.128,0,0.226-0.016,0.302-0.041L22.477,22.5z"/>
				<path fill="#FFFFFF" d="M25.902,22.464c-0.384,0.117-0.755,0.175-1.146,0.173c-1.251-0.001-1.902-0.654-1.902-1.904
					c0-1.459,0.828-2.532,1.955-2.532c0.92,0,1.508,0.602,1.508,1.545c0,0.312-0.04,0.619-0.137,1.051h-2.224
					c-0.076,0.619,0.319,0.877,0.97,0.877c0.4,0,0.761-0.082,1.163-0.271L25.902,22.464z M25.275,19.934
					c0.005-0.089,0.118-0.763-0.52-0.763c-0.356,0-0.61,0.271-0.715,0.763H25.275z"/>
				<path fill="#FFFFFF" d="M18.158,19.645c0,0.541,0.261,0.914,0.856,1.192c0.454,0.213,0.525,0.277,0.525,0.472
					c0,0.267-0.201,0.385-0.646,0.385c-0.335,0-0.647-0.051-1.008-0.168c0,0-0.147,0.942-0.153,0.986
					c0.255,0.057,0.482,0.106,1.169,0.127c1.186,0,1.733-0.451,1.733-1.429c0-0.586-0.229-0.93-0.792-1.188
					c-0.472-0.217-0.525-0.265-0.525-0.463c0-0.229,0.187-0.351,0.55-0.351c0.221,0,0.521,0.023,0.808,0.064l0.16-0.988
					c-0.291-0.047-0.733-0.084-0.989-0.084C18.589,18.201,18.153,18.856,18.158,19.645z"/>
				<path fill="#FFFFFF" d="M41.132,22.562H40.07l0.052-0.396c-0.308,0.33-0.624,0.474-1.035,0.474
					c-0.816,0-1.357-0.705-1.357-1.772c0-1.418,0.838-2.617,1.828-2.617c0.436,0,0.766,0.178,1.073,0.584l0.25-1.519h1.108
					L41.132,22.562z M39.474,21.58c0.523,0,0.891-0.596,0.891-1.44c0-0.541-0.209-0.837-0.595-0.837
					c-0.51,0-0.872,0.595-0.872,1.435C38.898,21.294,39.092,21.58,39.474,21.58z"/>
				<path fill="#FFFFFF" d="M36.198,18.294c-0.141,1.322-0.392,2.66-0.586,3.982l-0.052,0.287h1.124
					c0.402-2.611,0.498-3.121,1.13-3.059c0.1-0.533,0.287-1.002,0.426-1.237c-0.471-0.099-0.734,0.168-1.077,0.673
					c0.026-0.219,0.076-0.432,0.066-0.646H36.198L36.198,18.294z"/>
				<path fill="#FFFFFF" d="M26.948,18.294c-0.142,1.322-0.392,2.66-0.587,3.982l-0.051,0.287h1.124
					c0.403-2.611,0.498-3.121,1.128-3.059c0.102-0.533,0.289-1.002,0.427-1.237c-0.47-0.099-0.732,0.168-1.077,0.673
					c0.028-0.219,0.077-0.432,0.068-0.646H26.948L26.948,18.294z"/>
				<g>
					<path fill="#FFFFFF" d="M41.625,22.229c0-0.185,0.15-0.334,0.335-0.334c0.184,0,0.332,0.149,0.332,0.334
						c0,0.187-0.148,0.334-0.332,0.334S41.625,22.414,41.625,22.229z M41.96,22.484c0.142,0,0.254-0.113,0.254-0.254
						c0-0.143-0.112-0.254-0.254-0.254c-0.14,0-0.255,0.111-0.255,0.254C41.705,22.371,41.821,22.484,41.96,22.484z M41.915,22.376
						h-0.068v-0.293h0.125c0.024,0,0.051,0,0.074,0.015c0.023,0.017,0.037,0.043,0.037,0.073c0,0.033-0.019,0.064-0.051,0.076
						l0.055,0.129H42.01l-0.045-0.117h-0.05V22.376z M41.915,22.208h0.039c0.013,0,0.029,0.002,0.041-0.006
						c0.012-0.006,0.018-0.021,0.018-0.033c0-0.012-0.007-0.024-0.017-0.03c-0.012-0.007-0.032-0.005-0.045-0.005h-0.036V22.208z"/>
				</g>
			</g>
		</g>
	</g>
</g>
<g id="Visa">
	
		<linearGradient id="SVGID_1_" gradientUnits="userSpaceOnUse" x1="67.75" y1="-736.8291" x2="67.75" y2="-760.3306" gradientTransform="matrix(1 0 0 -1 0 -728.7393)">
		<stop  offset="0" style="stop-color:#FFFFFF"/>
		<stop  offset="0.4204" style="stop-color:#EEEEEE"/>
		<stop  offset="0.7453" style="stop-color:#CCCCCC"/>
		<stop  offset="1" style="stop-color:#EEEEEE"/>
	</linearGradient>
	<rect x="49.037" y="8.158" fill="url(#SVGID_1_)" stroke="#CCCCCC" stroke-width="0.5144" width="37.425" height="23.363"/>
	<g>
		<path fill="#0058A0" d="M60.212,14.539l-2.601,7.014l-0.278-1.426c-0.629-1.701-1.853-3.254-3.679-4.295l2.377,8.982h2.812
			l4.182-10.275H60.212"/>
		<polyline fill="#0058A0" points="62.44,24.816 64.101,14.529 66.759,14.529 65.096,24.816 62.44,24.816 		"/>
		<path fill="#0058A0" d="M74.732,14.783c-0.524-0.209-1.354-0.434-2.379-0.434c-2.629,0-4.477,1.396-4.492,3.393
			c-0.017,1.482,1.32,2.307,2.327,2.799c1.035,0.504,1.383,0.828,1.379,1.277c-0.01,0.688-0.829,1-1.592,1
			c-1.062,0-1.627-0.152-2.497-0.541l-0.346-0.16l-0.371,2.301c0.621,0.291,1.767,0.535,2.962,0.551
			c2.788,0,4.602-1.381,4.623-3.516c0.013-1.172-0.697-2.062-2.233-2.797c-0.925-0.476-1.5-0.791-1.49-1.275
			c0.001-0.426,0.481-0.883,1.524-0.883c0.869-0.019,1.492,0.183,1.987,0.395l0.237,0.12L74.732,14.783"/>
		<path fill="#0058A0" d="M81.542,14.539h-2.051c-0.638,0-1.113,0.186-1.396,0.854l-3.943,9.427h2.792c0,0,0.456-1.27,0.559-1.547
			c0.307,0,3.014,0.008,3.399,0.008c0.083,0.359,0.326,1.539,0.326,1.539h2.466L81.542,14.539 M78.269,21.169
			c0.223-0.59,1.061-2.875,1.061-2.875c-0.019,0.027,0.215-0.598,0.353-0.982l0.177,0.891c0,0,0.512,2.453,0.616,2.967
			C80.061,21.169,78.789,21.169,78.269,21.169z"/>
		<path fill="#FAA61A" d="M55.201,14.535h-4.285l-0.023,0.176c3.329,0.851,5.527,2.945,6.441,5.418l-0.93-4.728
			C56.244,14.75,55.777,14.558,55.201,14.535z"/>
	</g>
</g>
<g id="AmericanExpress">
	
		<radialGradient id="SVGID_2_" cx="-53.9194" cy="510.4106" r="22.498" gradientTransform="matrix(1 0 0 1 149.0522 -498.3594)" gradientUnits="userSpaceOnUse">
		<stop  offset="0" style="stop-color:#9FD4F3"/>
		<stop  offset="0.0711" style="stop-color:#99D2F2"/>
		<stop  offset="0.1575" style="stop-color:#8BCDF1"/>
		<stop  offset="0.2516" style="stop-color:#71C6EF"/>
		<stop  offset="0.3514" style="stop-color:#51BCEA"/>
		<stop  offset="0.4546" style="stop-color:#21ADE4"/>
		<stop  offset="0.5" style="stop-color:#1AA6DF"/>
		<stop  offset="1" style="stop-color:#3078BC"/>
	</radialGradient>
	<path fill="url(#SVGID_2_)" d="M115.038,7.881L90.872,7.901v23.833l24.146,0.021l0.012-7.793c0.098-0.139,0.145-0.315,0.145-0.532
		c0-0.248-0.047-0.402-0.145-0.531"/>
	<path fill="#FFFFFF" d="M93.037,18.208l-0.467-1.133l-0.462,1.133 M103.28,17.757c-0.094,0.056-0.204,0.058-0.336,0.058h-0.825
		v-0.632h0.838c0.117,0,0.239,0.006,0.32,0.052c0.09,0.041,0.145,0.13,0.145,0.251C103.419,17.61,103.369,17.71,103.28,17.757z
		 M109.167,18.208l-0.472-1.133l-0.467,1.133H109.167z M98.192,19.434h-0.696l-0.002-2.226l-0.984,2.226h-0.598l-0.988-2.228v2.228
		h-1.383l-0.26-0.634h-1.414l-0.265,0.634h-0.737l1.217-2.843h1.01l1.154,2.691v-2.691h1.109l0.889,1.93l0.817-1.93h1.131V19.434
		L98.192,19.434z M100.966,19.434h-2.268v-2.843h2.268v0.592h-1.588v0.513h1.552v0.583h-1.552v0.568h1.588V19.434z M104.167,17.357
		c0,0.453-0.303,0.688-0.479,0.758c0.148,0.057,0.275,0.156,0.336,0.239c0.098,0.142,0.113,0.267,0.113,0.521v0.56h-0.686
		l-0.002-0.356c0-0.17,0.016-0.416-0.107-0.554c-0.1-0.101-0.25-0.122-0.495-0.122h-0.729v1.035h-0.68v-2.844h1.562
		c0.348,0,0.604,0.01,0.822,0.137C104.041,16.855,104.167,17.041,104.167,17.357z M105.255,19.434h-0.692v-2.843h0.692V19.434z
		 M113.298,19.434h-0.963l-1.287-2.134v2.134h-1.385l-0.266-0.634h-1.409l-0.258,0.634h-0.795c-0.331,0-0.748-0.072-0.985-0.312
		c-0.238-0.242-0.361-0.568-0.361-1.086c0-0.422,0.074-0.807,0.365-1.111c0.219-0.227,0.562-0.332,1.03-0.332h0.658v0.607H107
		c-0.248,0-0.389,0.036-0.523,0.168c-0.116,0.121-0.193,0.346-0.193,0.645c0,0.305,0.059,0.523,0.186,0.667
		c0.105,0.112,0.295,0.146,0.475,0.146h0.305l0.959-2.234h1.018l1.15,2.688v-2.688h1.035l1.193,1.979v-1.979h0.695V19.434
		L113.298,19.434z M90.857,19.994h1.16l0.261-0.633h0.587l0.262,0.633h2.283v-0.484l0.205,0.484H96.8l0.205-0.492v0.49h5.677
		l-0.004-1.037h0.11c0.075,0.004,0.1,0.01,0.1,0.137v0.9h2.936v-0.24c0.237,0.127,0.605,0.24,1.09,0.24h1.236l0.262-0.631h0.586
		l0.26,0.631h2.381v-0.6l0.359,0.6h1.907v-3.965h-1.887v0.469l-0.267-0.469h-1.936v0.469l-0.242-0.469h-2.617
		c-0.438,0-0.822,0.062-1.135,0.232v-0.232h-1.805v0.232c-0.197-0.176-0.469-0.232-0.768-0.232h-6.596L96.21,17.05l-0.455-1.023
		h-2.076v0.469l-0.229-0.469h-1.771l-0.822,1.887V19.994L90.857,19.994z"/>
	<path fill="#FFFFFF" d="M115.029,22.089h-1.236c-0.125,0-0.207,0.004-0.274,0.052c-0.072,0.045-0.101,0.114-0.101,0.204
		c0,0.107,0.062,0.181,0.148,0.212c0.071,0.022,0.148,0.03,0.262,0.03l0.367,0.011c0.372,0.01,0.62,0.073,0.771,0.229
		c0.027,0.021,0.043,0.045,0.062,0.068 M115.029,23.962c-0.164,0.242-0.484,0.365-0.921,0.365h-1.312v-0.611h1.308
		c0.129,0,0.22-0.016,0.274-0.069c0.047-0.043,0.08-0.106,0.08-0.187c0-0.082-0.033-0.147-0.084-0.188
		c-0.049-0.043-0.119-0.062-0.24-0.062c-0.637-0.021-1.432,0.021-1.432-0.881c0-0.412,0.26-0.846,0.975-0.846h1.353v-0.564h-1.257
		c-0.38,0-0.654,0.09-0.85,0.23v-0.23h-1.86c-0.298,0-0.646,0.072-0.812,0.23v-0.23h-3.32v0.23c-0.266-0.189-0.71-0.23-0.916-0.23
		h-2.191v0.23c-0.209-0.201-0.674-0.23-0.957-0.23h-2.451l-0.562,0.605l-0.523-0.605h-3.664v3.965h3.595l0.577-0.614l0.545,0.614
		l2.216,0.003v-0.933h0.218c0.293,0.004,0.641-0.01,0.946-0.141v1.068h1.827v-1.031h0.088c0.111,0,0.123,0.004,0.123,0.115v0.916
		h5.551c0.354,0,0.721-0.088,0.925-0.252v0.252h1.761c0.365,0,0.725-0.051,0.996-0.182v-0.74L115.029,23.962L115.029,23.962z
		 M112.32,22.828c0.133,0.137,0.202,0.312,0.202,0.604c0,0.61-0.382,0.896-1.065,0.896h-1.324v-0.609h1.318
		c0.129,0,0.219-0.018,0.276-0.069c0.047-0.045,0.08-0.106,0.08-0.187c0-0.084-0.035-0.147-0.082-0.188
		c-0.052-0.043-0.124-0.062-0.243-0.062c-0.635-0.021-1.43,0.021-1.43-0.881c0-0.412,0.258-0.848,0.971-0.848h1.361v0.605h-1.245
		c-0.124,0-0.205,0.004-0.272,0.051c-0.074,0.047-0.103,0.115-0.103,0.205c0,0.107,0.063,0.18,0.149,0.211
		c0.07,0.025,0.147,0.033,0.264,0.033l0.367,0.01C111.914,22.607,112.166,22.671,112.32,22.828z M106.189,22.652
		c-0.092,0.055-0.204,0.059-0.337,0.059h-0.825v-0.639h0.838c0.12,0,0.242,0.002,0.324,0.051c0.087,0.047,0.141,0.135,0.141,0.256
		C106.33,22.501,106.276,22.6,106.189,22.652z M106.599,23.005c0.15,0.058,0.273,0.156,0.332,0.24
		c0.097,0.139,0.109,0.269,0.113,0.519v0.563h-0.685v-0.354c0-0.173,0.017-0.427-0.108-0.558c-0.101-0.102-0.25-0.125-0.498-0.125
		h-0.728v1.039h-0.682v-2.844h1.569c0.342,0,0.594,0.016,0.815,0.135c0.215,0.129,0.349,0.307,0.349,0.631
		C107.08,22.705,106.778,22.936,106.599,23.005z M107.457,21.484h2.269v0.588h-1.591v0.518h1.552v0.58h-1.552v0.564l1.591,0.002
		v0.592h-2.269V21.484z M102.875,22.796h-0.879v-0.725h0.885c0.246,0,0.416,0.1,0.416,0.35
		C103.296,22.667,103.134,22.796,102.875,22.796z M101.318,24.068l-1.044-1.156l1.044-1.121V24.068z M98.625,23.734h-1.67v-0.564
		h1.491v-0.58h-1.491v-0.518h1.703l0.743,0.828L98.625,23.734z M104.025,22.421c0,0.789-0.589,0.953-1.182,0.953h-0.848v0.953
		h-1.322l-0.836-0.94l-0.869,0.94h-2.691v-2.844h2.732l0.837,0.934l0.862-0.934h2.172C103.419,21.484,104.025,21.634,104.025,22.421
		z"/>
</g>
<g id="Discover">
	<rect x="119.569" y="8.062" fill="#FFFFFF" width="37" height="23.45"/>
	<path fill="#F58220" d="M156.468,21.166c0,0-10.12,7.142-28.656,10.338h28.656V21.166z"/>
	<path fill="#231F20" d="M156.606,7.906l-37.181,0.002l0.002,23.865h37.314V7.906H156.606z M156.471,8.177c0,0.265,0,23.06,0,23.327
		c-0.269,0-36.505,0-36.774,0c0-0.266,0-23.06,0-23.324C119.964,8.179,156.203,8.177,156.471,8.177z"/>
	<path fill="#E83530" d="M152.914,28.576"/>
	
	<radialGradient id="SVGID_3_" cx="132.5474" cy="-259.311" r="2.7204" gradientTransform="matrix(1 0 0 -1 6.416 -242.6572)" gradientUnits="userSpaceOnUse">
		<stop  offset="0.0056" style="stop-color:#FFEFE1"/>
		<stop  offset="0.1092" style="stop-color:#FFEAD8"/>
		<stop  offset="0.2782" style="stop-color:#FDDCC0"/>
		<stop  offset="0.4917" style="stop-color:#FBC698"/>
		<stop  offset="0.7412" style="stop-color:#F8A761"/>
		<stop  offset="1" style="stop-color:#F58220"/>
	</radialGradient>
	<path fill="url(#SVGID_3_)" d="M138.966,13.964c-1.521,0-2.754,1.188-2.754,2.654c0,1.559,1.182,2.725,2.754,2.725
		c1.535,0,2.748-1.18,2.748-2.693C141.714,15.146,140.509,13.964,138.966,13.964z"/>
	<path fill="#001722" d="M123.333,14.062h-1.479v5.165h1.476c0.779,0,1.346-0.187,1.842-0.597c0.588-0.487,0.938-1.223,0.938-1.983
		C126.104,15.123,124.964,14.062,123.333,14.062z M124.507,17.94c-0.316,0.287-0.727,0.411-1.379,0.411h-0.271v-3.416h0.271
		c0.652,0,1.045,0.115,1.379,0.418c0.351,0.311,0.559,0.79,0.559,1.285C125.066,17.134,124.858,17.632,124.507,17.94z"/>
	<rect x="126.569" y="14.062" fill="#001722" width="1.009" height="5.165"/>
	<path fill="#001722" d="M130.041,16.042c-0.604-0.225-0.783-0.373-0.783-0.649c0-0.326,0.315-0.573,0.752-0.573
		c0.303,0,0.551,0.124,0.812,0.417l0.526-0.688c-0.436-0.379-0.952-0.573-1.52-0.573c-0.912,0-1.611,0.635-1.611,1.479
		c0,0.713,0.326,1.076,1.271,1.418c0.396,0.139,0.598,0.23,0.697,0.293c0.201,0.133,0.302,0.317,0.302,0.535
		c0,0.418-0.333,0.727-0.78,0.727c-0.479,0-0.867-0.239-1.102-0.688l-0.648,0.629c0.465,0.68,1.021,0.98,1.789,0.98
		c1.045,0,1.779-0.698,1.779-1.696C131.526,16.833,131.185,16.46,130.041,16.042z"/>
	<path fill="#001722" d="M131.841,16.646c0,1.52,1.193,2.695,2.728,2.695c0.435,0,0.808-0.084,1.265-0.301v-1.186
		c-0.402,0.402-0.76,0.564-1.217,0.564c-1.016,0-1.734-0.735-1.734-1.781c0-0.991,0.742-1.773,1.688-1.773
		c0.479,0,0.848,0.17,1.266,0.581v-1.185c-0.44-0.225-0.809-0.316-1.24-0.316C133.067,13.945,131.841,15.146,131.841,16.646z"/>
	<polygon fill="#001722" points="143.996,17.531 142.617,14.062 141.516,14.062 143.708,19.357 144.25,19.357 146.481,14.062 
		145.389,14.062 	"/>
	<polygon fill="#001722" points="146.938,19.227 149.794,19.227 149.794,18.352 147.946,18.352 147.946,16.957 149.725,16.957 
		149.725,16.082 147.946,16.082 147.946,14.936 149.794,14.936 149.794,14.062 146.938,14.062 	"/>
	<path fill="#001722" d="M153.785,15.585c0-0.967-0.666-1.524-1.828-1.524h-1.494v5.166h1.01V17.15h0.131L153,19.227h1.235
		l-1.627-2.177C153.367,16.895,153.785,16.376,153.785,15.585z M151.762,16.438h-0.294v-1.565h0.31c0.63,0,0.972,0.265,0.972,0.768
		C152.75,16.16,152.408,16.438,151.762,16.438z"/>
	<path fill="#231F20" d="M154.496,14.446c0-0.09-0.062-0.139-0.172-0.139h-0.146v0.455h0.107v-0.177l0.127,0.177h0.135l-0.148-0.188
		C154.458,14.557,154.496,14.509,154.496,14.446z M154.305,14.507h-0.021V14.39h0.021c0.053,0,0.079,0.02,0.079,0.059
		S154.358,14.507,154.305,14.507z"/>
	<path fill="#231F20" d="M154.343,14.134c-0.221,0-0.395,0.178-0.395,0.398c0,0.219,0.178,0.396,0.395,0.396
		c0.218,0,0.394-0.18,0.394-0.396C154.737,14.315,154.561,14.134,154.343,14.134z M154.343,14.859c-0.176,0-0.317-0.146-0.317-0.324
		c0-0.183,0.142-0.326,0.317-0.326c0.173,0,0.312,0.146,0.312,0.326C154.658,14.712,154.516,14.859,154.343,14.859z"/>
	<path fill="#231F20" d="M130.878,20.583l1.349,1.412v-1.338h0.192v1.805l-1.35-1.41v1.332h-0.191V20.583z"/>
	<path fill="#231F20" d="M130.862,20.583v1.818h0.229c0,0,0-1.221,0-1.305c0.061,0.062,1.35,1.408,1.35,1.408v-1.867h-0.229
		c0,0,0,1.229,0,1.312c-0.062-0.062-1.35-1.414-1.35-1.414L130.862,20.583L130.862,20.583z M130.898,20.628
		c0.061,0.062,1.35,1.412,1.35,1.412s0-1.332,0-1.367c0.024,0,0.129,0,0.154,0c0,0.035,0,1.66,0,1.744
		c-0.061-0.062-1.347-1.41-1.347-1.41s0,1.324,0,1.359c-0.027,0-0.132,0-0.157,0C130.898,22.333,130.898,20.712,130.898,20.628z"/>
	<path fill="#231F20" d="M133.354,20.658h0.896v0.178h-0.703v0.515h0.685v0.178h-0.685v0.679h0.703v0.18h-0.896V20.658z"/>
	<path fill="#231F20" d="M134.25,20.639h-0.914v1.764h0.935v-0.215c0,0-0.669,0-0.703,0c0-0.03,0-0.606,0-0.644
		c0.034,0,0.685,0,0.685,0v-0.213c0,0-0.647,0-0.685,0c0-0.033,0-0.445,0-0.477c0.034,0,0.703,0,0.703,0v-0.217L134.25,20.639
		L134.25,20.639z M134.231,20.673c0,0.027,0,0.119,0,0.144c-0.035,0-0.703,0-0.703,0v0.552c0,0,0.647,0,0.683,0
		c0,0.024,0,0.114,0,0.144c-0.033,0-0.683,0-0.683,0v0.716c0,0,0.668,0,0.703,0c0,0.023,0,0.115,0,0.143c-0.034,0-0.826,0-0.858,0
		c0-0.035,0-1.656,0-1.693C133.405,20.673,134.197,20.673,134.231,20.673z"/>
	<path fill="#231F20" d="M135.608,22.384h-0.19v-1.549H135v-0.178h1.03v0.178h-0.422V22.384L135.608,22.384z"/>
	<path fill="#231F20" d="M136.03,20.639h-1.051v0.217c0,0,0.388,0,0.418,0c0,0.033,0,1.547,0,1.547h0.229c0,0,0-1.514,0-1.547
		c0.033,0,0.422,0,0.422,0v-0.217H136.03z M136.012,20.673c0,0.027,0,0.119,0,0.144c-0.033,0-0.423,0-0.423,0s0,1.517,0,1.552
		c-0.026,0-0.131,0-0.155,0c0-0.035,0-1.552,0-1.552s-0.386,0-0.417,0c0-0.022,0-0.114,0-0.144
		C135.048,20.673,135.978,20.673,136.012,20.673z"/>
	<path fill="#231F20" d="M137.318,21.953l0.561-1.387l0.561,1.387l0.453-1.295h0.21l-0.663,1.816l-0.561-1.395l-0.561,1.395
		l-0.66-1.816h0.207L137.318,21.953z"/>
	<path fill="#231F20" d="M137.861,20.561c0,0-0.509,1.258-0.542,1.34c-0.028-0.084-0.44-1.262-0.44-1.262h-0.248l0.688,1.887
		c0,0,0.528-1.313,0.561-1.396c0.031,0.08,0.561,1.396,0.561,1.396l0.688-1.887h-0.248c0,0-0.412,1.178-0.439,1.262
		c-0.034-0.082-0.561-1.381-0.561-1.381L137.861,20.561z M137.333,21.958c0,0,0.513-1.268,0.543-1.342
		c0.031,0.076,0.561,1.387,0.561,1.387s0.457-1.305,0.466-1.33c0.021,0,0.134,0,0.171,0c-0.017,0.047-0.607,1.668-0.639,1.75
		c-0.032-0.082-0.559-1.389-0.559-1.389s-0.525,1.307-0.561,1.389c-0.029-0.082-0.62-1.703-0.638-1.75c0.034,0,0.149,0,0.17,0
		c0.009,0.025,0.466,1.33,0.466,1.33L137.333,21.958z"/>
	<path fill="#231F20" d="M141.587,21.523c0,0.496-0.407,0.893-0.899,0.893c-0.494,0-0.899-0.396-0.899-0.893
		s0.405-0.896,0.899-0.896C141.18,20.626,141.587,21.027,141.587,21.523z M139.979,21.521c0,0.389,0.315,0.713,0.709,0.713
		c0.392,0,0.707-0.324,0.707-0.713c0-0.395-0.312-0.717-0.707-0.717C140.292,20.805,139.979,21.128,139.979,21.521z"/>
	<path fill="#231F20" d="M139.768,21.523c0,0.5,0.412,0.91,0.92,0.91c0.506,0,0.918-0.408,0.918-0.91
		c0-0.504-0.412-0.914-0.918-0.914C140.18,20.609,139.768,21.02,139.768,21.523z M139.803,21.523c0-0.484,0.396-0.877,0.885-0.877
		c0.483,0,0.883,0.393,0.883,0.877c0,0.48-0.397,0.873-0.883,0.873C140.201,22.396,139.803,22.005,139.803,21.523z"/>
	<path fill="#231F20" d="M139.958,21.521c0,0.402,0.328,0.73,0.729,0.73c0.397,0,0.726-0.328,0.726-0.73
		c0-0.404-0.326-0.732-0.726-0.732S139.958,21.117,139.958,21.521z M139.998,21.521c0-0.387,0.311-0.697,0.69-0.697
		s0.688,0.312,0.688,0.697s-0.308,0.695-0.688,0.695C140.305,22.218,139.998,21.906,139.998,21.521z"/>
	<path fill="#231F20" d="M142.614,22.384h-0.19v-1.727h0.25c0.328,0,0.633,0.086,0.633,0.477c0,0.267-0.166,0.453-0.434,0.478
		l0.549,0.774h-0.234l-0.521-0.76h-0.049v0.758H142.614z M142.614,21.457h0.062c0.219,0,0.438-0.041,0.438-0.309
		c0-0.283-0.209-0.312-0.438-0.312h-0.059v0.621H142.614z"/>
	<path fill="#231F20" d="M142.421,20.639h-0.02v1.764h0.229c0,0,0-0.726,0-0.758c0.016,0,0.029,0,0.029,0l0,0
		c0,0.015,0.508,0.75,0.508,0.75l0.25,0.008h0.037c0,0-0.529-0.739-0.558-0.78c0.256-0.035,0.422-0.224,0.422-0.486
		c0-0.334-0.213-0.494-0.649-0.494h-0.248V20.639z M142.671,20.673c0.418,0,0.613,0.146,0.613,0.459
		c0,0.259-0.162,0.438-0.416,0.459l-0.031,0.004c0,0,0.513,0.72,0.55,0.771c-0.052,0-0.201,0-0.203,0h0.002
		c0-0.014-0.508-0.752-0.508-0.752l-0.064-0.008h-0.018c0,0,0,0.725,0,0.76c-0.025,0-0.132,0-0.156,0c0-0.035,0-1.656,0-1.693
		C142.471,20.673,142.671,20.673,142.671,20.673z"/>
	<path fill="#231F20" d="M142.614,20.816h-0.018v0.658h0.077c0.214,0,0.455-0.039,0.455-0.328c0-0.307-0.235-0.33-0.457-0.33
		H142.614z M142.671,20.855c0.224,0,0.422,0.021,0.422,0.291c0,0.256-0.213,0.291-0.42,0.291c0,0-0.022,0-0.041,0
		c0-0.031,0-0.553,0-0.582C142.651,20.855,142.671,20.855,142.671,20.855z"/>
	<path fill="#231F20" d="M145.167,20.658h0.258l-0.812,0.805l0.839,0.922h-0.267l-0.709-0.793l-0.047,0.048v0.745h-0.193v-1.727
		h0.193v0.738L145.167,20.658z"/>
	<path fill="#231F20" d="M145.423,20.639h-0.266c0,0-0.654,0.657-0.713,0.715c0-0.078,0-0.715,0-0.715h-0.229v1.764h0.229
		c0,0,0-0.758,0-0.76c0.004,0,0.02-0.015,0.029-0.022c0.021,0.024,0.693,0.776,0.693,0.776l0.278,0.006h0.041
		c0,0-0.832-0.916-0.854-0.938c0.023-0.023,0.828-0.822,0.828-0.822h-0.039v-0.003H145.423z M145.38,20.673
		c-0.061,0.06-0.793,0.787-0.793,0.787s0.771,0.851,0.822,0.906c-0.061,0-0.227,0-0.227,0l0,0c0-0.01-0.693-0.787-0.693-0.787
		l-0.014-0.016l-0.062,0.062c0,0-0.004,0.705-0.004,0.74c-0.027,0-0.131,0-0.156,0c0-0.035,0-1.658,0-1.693c0.024,0,0.129,0,0.156,0
		c0,0.035,0,0.769,0,0.769s0.75-0.756,0.76-0.769C145.184,20.673,145.324,20.673,145.38,20.673z"/>
</g>

</svg>
